<?xml version="1.0" standalone="no"?>
<!DOCTYPE svg PUBLIC "-//W3C//DTD SVG 20010904//EN"
 "http://www.w3.org/TR/2001/REC-SVG-20010904/DTD/svg10.dtd">
<svg version="1.0" xmlns="http://www.w3.org/2000/svg"
 width="380.000000pt" height="380.000000pt" viewBox="0 0 380.000000 380.000000"
 preserveAspectRatio="xMidYMid meet">
<metadata>
Created by potrace 1.14, written by Peter Selinger 2001-2017
</metadata>
<g transform="translate(0.000000,380.000000) scale(0.100000,-0.100000)"
fill="#000000" stroke="none">
<path d="M1661 3694 c-456 -62 -877 -294 -1154 -637 -41 -50 -100 -131 -130
-178 -449 -699 -359 -1617 216 -2216 588 -613 1530 -730 2252 -280 187 116
386 304 517 488 85 119 196 341 242 484 34 108 68 273 81 390 7 56 6 58 -12
45 -17 -14 -17 -14 0 6 14 17 17 40 17 125 0 299 -89 632 -237 884 -94 160
-291 403 -316 389 -7 -4 -9 -3 -4 1 17 19 -181 178 -332 267 -335 198 -758
284 -1140 232z m574 -73 c354 -77 635 -229 885 -480 152 -153 244 -278 333
-457 336 -671 198 -1494 -337 -2018 -298 -291 -672 -462 -1088 -496 -65 -5
-121 -11 -125 -12 -8 -2 -156 10 -233 18 -86 10 -275 56 -369 90 -499 181
-896 586 -1061 1083 -73 218 -84 295 -84 561 0 207 2 247 22 339 81 368 252
678 511 923 129 123 270 222 423 299 35 17 65 34 68 38 3 3 10 6 15 6 6 0 51
15 100 33 99 37 262 79 358 92 34 5 157 7 272 5 169 -2 229 -7 310 -24z"/>
<path d="M1668 3605 c-313 -43 -622 -176 -853 -368 -33 -28 -59 -54 -58 -59 2
-4 -2 -8 -8 -8 -16 0 -115 -96 -179 -175 -177 -216 -298 -472 -357 -754 -23
-111 -26 -150 -27 -326 0 -168 4 -218 22 -314 22 -109 60 -243 87 -306 54
-128 73 -167 117 -243 169 -294 449 -551 757 -694 160 -74 415 -147 476 -135
14 2 22 1 20 -3 -6 -10 112 -20 245 -20 439 1 875 184 1189 500 330 332 506
761 500 1219 -1 136 -19 298 -30 287 -4 -4 -4 4 -2 16 6 34 -39 201 -88 323
-38 95 -130 272 -148 285 -4 3 -10 12 -13 20 -26 71 -261 320 -399 425 -356
268 -815 389 -1251 330z m380 -108 c3 -32 0 -39 -18 -44 -21 -6 -22 -9 -15
-112 4 -58 9 -107 10 -109 1 -2 18 -5 38 -9 l34 -5 73 141 c50 96 79 141 90
141 20 0 82 -20 93 -29 6 -6 36 -260 37 -313 0 -10 5 -18 11 -18 6 0 17 -7 25
-15 9 -8 19 -15 23 -15 8 0 111 176 111 190 0 4 -7 11 -15 14 -14 5 -13 11 5
45 11 22 23 42 28 45 4 2 29 -8 54 -24 51 -32 48 -23 65 -190 l8 -75 28 48 29
49 -21 14 c-20 14 -20 16 -5 47 9 18 18 33 19 35 2 2 144 -75 154 -84 3 -3 -3
-20 -12 -39 -15 -30 -20 -34 -36 -25 -17 9 -27 -4 -90 -118 -39 -70 -75 -133
-79 -140 -8 -11 -17 -10 -50 7 l-41 21 -3 113 -3 112 -23 -44 c-21 -39 -22
-45 -8 -59 13 -13 13 -18 0 -44 -8 -15 -17 -28 -20 -28 -2 0 -37 17 -77 37
-39 20 -106 44 -147 53 -43 10 -75 21 -74 28 1 7 2 23 3 37 0 15 9 29 20 33
14 5 17 12 10 30 -5 12 -15 22 -23 22 -8 0 -21 3 -30 6 -22 8 -33 -24 -13 -39
21 -17 11 -77 -13 -77 -10 0 -55 7 -101 16 -55 10 -105 14 -145 9 l-62 -6 -4
42 c-3 34 0 43 14 47 13 3 18 14 18 38 l0 34 -60 0 c-51 0 -60 -3 -60 -17 0
-37 13 -63 30 -63 13 0 19 -10 22 -35 2 -20 2 -38 -1 -40 -2 -3 -44 -5 -93 -5
l-88 0 0 34 c0 26 5 36 21 41 20 7 20 11 14 103 -8 115 -12 132 -31 132 -10 0
-14 12 -14 39 0 37 2 39 38 45 68 11 119 7 126 -10 12 -32 6 -63 -15 -69 -15
-5 -19 -14 -17 -33 3 -25 6 -27 62 -30 57 -3 58 -2 52 20 -3 13 -6 29 -6 36 0
6 -6 12 -14 12 -29 0 -37 76 -8 83 9 3 51 4 92 4 l75 -2 3 -38z m-464 -65 c9
-32 16 -63 16 -69 0 -5 -18 -18 -39 -28 -37 -16 -41 -16 -56 -1 -26 25 -73 21
-86 -8 -26 -55 22 -146 77 -146 16 0 36 11 52 28 l27 28 43 -19 c39 -17 43
-21 38 -45 -9 -38 -67 -89 -116 -102 -100 -27 -201 39 -235 152 -20 70 -19 97
8 148 26 50 75 80 130 80 25 0 36 4 31 11 -10 16 15 29 57 29 36 0 37 -1 53
-58z m-394 -126 c16 -25 30 -49 30 -54 0 -6 -15 -19 -32 -30 -29 -19 -34 -19
-49 -6 -16 14 -20 14 -43 -1 -24 -16 -24 -18 -9 -41 18 -28 15 -27 47 -13 22
10 28 9 45 -12 26 -31 26 -37 0 -58 -21 -17 -21 -18 -5 -49 l17 -33 29 18 c33
19 34 21 20 57 -9 24 -6 28 32 47 46 23 42 26 84 -54 13 -26 23 -51 20 -56 -3
-4 -63 -43 -133 -86 -90 -55 -145 -98 -186 -142 -32 -35 -62 -63 -67 -63 -4 0
-19 9 -34 21 -21 16 -24 24 -16 35 15 17 10 23 -51 75 l-50 42 5 -34 c8 -43
-10 -66 -54 -71 l-34 -3 56 -42 c47 -35 57 -40 69 -28 12 12 19 11 47 -11 l32
-26 -56 -64 c-31 -35 -62 -64 -68 -64 -7 0 -23 11 -36 25 -18 19 -20 27 -12
38 10 11 -4 28 -69 82 -70 58 -84 66 -100 57 -15 -10 -24 -7 -54 19 l-35 31
42 49 42 50 62 -7 63 -6 -15 56 c-14 53 -14 58 5 84 10 15 32 39 48 54 l28 27
35 -29 c30 -24 32 -30 21 -44 -8 -10 -10 -20 -5 -25 33 -28 132 -109 147 -120
14 -11 20 -11 33 0 13 10 20 10 36 0 18 -11 19 -10 13 9 -4 11 -2 27 4 34 8 9
-5 36 -50 105 -49 77 -62 91 -74 81 -12 -10 -19 -6 -39 17 -14 15 -26 33 -26
39 0 13 227 163 247 164 7 0 26 -20 43 -44z m1918 -285 c-38 -51 -39 -51 -63
-35 -21 14 -25 11 -99 -72 -75 -83 -77 -87 -60 -105 17 -19 17 -21 -8 -46
l-27 -26 -48 40 c-74 63 -94 88 -87 107 10 25 42 40 58 26 11 -8 31 9 92 76
68 74 76 88 66 104 -10 16 -7 23 20 44 l31 24 68 -61 c57 -51 67 -63 57 -76z
m-967 20 c478 -108 828 -490 900 -983 17 -117 6 -308 -25 -431 -130 -514 -595
-877 -1123 -877 -383 0 -751 194 -959 506 -46 69 -71 118 -144 279 -18 39 -52
232 -57 325 -10 167 34 384 110 547 51 111 137 229 234 323 104 101 165 145
293 214 44 23 77 46 73 50 -4 4 0 4 9 1 10 -4 41 2 70 13 47 17 156 42 243 56
65 10 292 -4 376 -23z m1103 -174 c19 -15 40 -43 47 -62 8 -22 20 -35 31 -35
10 0 18 -2 18 -4 0 -2 7 -20 15 -39 l15 -36 -61 -37 -61 -37 -31 31 c-28 28
-30 33 -19 58 23 49 -7 87 -61 77 -40 -8 -97 -64 -97 -96 0 -27 40 -67 67 -67
12 0 14 -9 8 -47 -4 -27 -10 -52 -15 -56 -11 -12 -83 9 -113 33 -30 24 -67 96
-67 131 0 78 59 161 143 200 59 27 134 21 181 -14z m101 -766 c15 -34 24 -42
54 -47 77 -13 77 -12 36 -54 -36 -37 -37 -40 -30 -89 l7 -52 -45 22 -46 22
-50 -21 -51 -21 6 51 c5 45 3 54 -25 88 -34 42 -35 41 35 55 24 5 37 16 55 50
13 24 26 42 29 40 4 -2 15 -22 25 -44z m-2861 -65 c22 -37 31 -44 66 -49 23
-3 44 -8 48 -11 3 -4 -9 -22 -28 -41 -31 -32 -33 -37 -27 -84 3 -28 4 -51 1
-51 -3 0 -23 10 -46 21 l-42 21 -43 -21 c-24 -11 -45 -21 -48 -21 -2 0 -1 23
2 51 6 47 4 52 -27 84 -19 19 -31 37 -28 41 4 3 25 8 48 11 35 5 44 12 66 49
14 24 27 44 29 44 2 0 15 -20 29 -44z m471 -926 c82 -39 125 -98 125 -173 0
-125 -152 -249 -268 -218 -88 24 -160 124 -148 206 15 95 133 202 226 204 14
0 43 -8 65 -19z m1985 -25 c11 -13 11 -21 2 -35 -8 -13 -9 -41 -3 -95 8 -68
13 -81 42 -111 24 -25 40 -33 55 -30 14 4 28 -2 44 -19 23 -24 23 -25 4 -46
-10 -12 -40 -39 -67 -61 l-47 -40 -27 26 c-21 21 -23 29 -13 40 18 22 -42 93
-89 105 -78 20 -112 22 -128 10 -11 -10 -19 -10 -34 -1 -19 12 -19 12 1 -27
26 -52 26 -58 -9 -76 -29 -14 -30 -14 -51 15 -17 25 -25 28 -40 20 -18 -9 -15
-16 34 -103 51 -90 60 -98 98 -82 12 5 21 -2 32 -24 9 -16 16 -35 16 -40 0 -9
-198 -111 -214 -111 -2 0 -10 16 -16 36 -13 38 -13 38 29 63 11 6 5 24 -28 88
-23 44 -47 88 -54 97 -17 23 -51 11 -43 -15 3 -11 9 -27 12 -37 4 -13 -2 -22
-21 -30 -39 -18 -51 -15 -65 18 -12 28 -33 39 -43 23 -3 -5 4 -51 14 -103 20
-102 17 -140 -12 -181 -39 -55 -155 -76 -216 -39 -47 28 -62 58 -81 161 -15
83 -20 94 -40 97 -14 2 -24 12 -28 30 -3 15 -7 32 -9 39 -3 9 97 38 164 46 22
3 36 -72 17 -87 -13 -10 -13 -21 0 -91 9 -44 20 -86 26 -92 15 -19 52 -16 71
5 14 15 14 25 -1 105 -12 71 -18 87 -33 87 -13 0 -20 10 -25 34 -3 19 -3 39 0
44 3 6 39 15 79 22 39 6 88 20 108 31 194 103 265 139 276 139 7 0 32 17 55
37 79 68 72 66 102 42 15 -12 25 -28 22 -35 -3 -8 -1 -14 3 -14 5 0 16 -3 25
-6 13 -5 16 1 16 26 0 20 -4 29 -11 24 -6 -3 -22 6 -35 22 l-24 29 57 52 c60
53 72 55 103 18z m-1754 -180 c47 -28 45 -22 61 -189 l8 -80 28 51 c27 50 27
52 8 65 -17 12 -18 17 -6 46 8 17 19 32 25 32 10 0 133 -64 149 -77 3 -2 -3
-18 -11 -37 -12 -23 -23 -33 -38 -32 -19 1 -35 -20 -92 -124 -38 -69 -73 -129
-77 -133 -5 -4 -24 0 -44 9 -34 16 -36 20 -42 78 -3 34 -6 85 -8 114 l-2 53
-25 -45 c-22 -42 -23 -47 -8 -58 15 -12 15 -17 3 -46 l-14 -33 -81 41 c-44 22
-80 44 -80 48 1 23 31 57 50 57 32 0 126 165 110 192 -13 21 12 93 32 93 6 0
30 -11 54 -25z m647 -226 c95 -26 136 -107 116 -230 -19 -120 -70 -169 -173
-169 -34 1 -90 6 -126 13 l-65 12 -3 48 c-3 45 -2 47 22 47 15 0 26 3 26 8 0
4 6 46 14 94 7 49 10 90 8 93 -3 3 -14 5 -24 5 -15 0 -18 8 -18 51 l0 52 93
-7 c50 -3 109 -11 130 -17z"/>
<path d="M2255 3330 c-19 -37 -19 -40 5 -40 16 0 20 7 20 35 0 43 -5 44 -25 5z"/>
<path d="M1820 3026 c0 -22 5 -26 28 -26 24 0 28 4 27 23 -1 16 -9 23 -28 25
-23 3 -27 0 -27 -22z"/>
<path d="M1906 3034 c-4 -10 -1 -24 7 -31 19 -19 49 -5 45 21 -4 27 -43 34
-52 10z"/>
<path d="M1736 3024 c-4 -10 -2 -22 3 -27 15 -15 46 -3 46 18 0 26 -40 33 -49
9z"/>
<path d="M1992 3018 c3 -26 36 -37 49 -16 17 25 9 38 -22 38 -26 0 -30 -3 -27
-22z"/>
<path d="M1652 3003 c2 -23 7 -28 27 -25 32 3 34 6 26 31 -4 14 -15 21 -31 21
-22 0 -25 -4 -22 -27z"/>
<path d="M2074 3015 c-4 -9 0 -23 8 -31 20 -20 50 -7 46 20 -4 26 -45 35 -54
11z"/>
<path d="M1571 2996 c-17 -20 -7 -33 24 -33 21 0 25 4 23 21 -4 25 -30 32 -47
12z"/>
<path d="M2160 2985 c0 -14 4 -25 9 -25 5 0 16 -3 24 -6 18 -7 31 37 14 48
-26 16 -47 9 -47 -17z"/>
<path d="M1498 2983 c-20 -5 -23 -20 -9 -42 6 -9 18 -11 35 -7 21 5 24 10 17
28 -9 24 -17 28 -43 21z"/>
<path d="M2252 2981 c-20 -12 -10 -46 14 -49 25 -4 40 24 23 44 -13 16 -19 17
-37 5z"/>
<path d="M2326 2944 c-7 -18 2 -41 19 -47 13 -6 40 39 27 46 -25 14 -41 14
-46 1z"/>
<path d="M1407 2937 c-8 -21 8 -39 29 -35 11 2 20 13 22 26 3 18 -1 22 -21 22
-14 0 -27 -6 -30 -13z"/>
<path d="M1338 2909 c-14 -8 -15 -14 -6 -34 9 -21 14 -23 32 -13 29 15 29 14
16 37 -12 23 -17 25 -42 10z"/>
<path d="M2401 2907 c-17 -21 -3 -49 23 -45 15 2 21 10 21 28 0 28 -26 38 -44
17z"/>
<path d="M2473 2857 c-9 -19 -8 -26 8 -35 25 -16 28 -15 38 10 6 17 4 26 -8
35 -22 17 -26 16 -38 -10z"/>
<path d="M1257 2857 c-8 -21 8 -39 29 -35 27 5 25 42 -2 46 -12 2 -24 -3 -27
-11z"/>
<path d="M1196 2817 c-15 -11 -17 -17 -7 -35 14 -27 23 -27 45 -4 15 18 15 20
-2 35 -16 14 -21 15 -36 4z"/>
<path d="M2544 2805 c-8 -20 4 -35 26 -35 23 0 32 13 24 34 -8 20 -43 21 -50
1z"/>
<path d="M1124 2755 c-8 -21 2 -45 19 -45 21 0 38 25 31 44 -8 20 -43 21 -50
1z"/>
<path d="M2610 2755 c-10 -12 -10 -18 0 -30 17 -20 33 -19 47 5 11 16 10 21
-6 30 -25 13 -26 13 -41 -5z"/>
<path d="M1065 2700 c-18 -20 -18 -21 1 -41 l20 -20 19 21 c18 20 18 21 -1 41
l-20 20 -19 -21z"/>
<path d="M1978 2703 c-18 -20 -64 -119 -122 -259 l-38 -91 28 -54 c34 -67 56
-179 48 -239 -6 -43 -39 -140 -70 -205 -8 -16 -48 -106 -88 -199 -64 -147 -83
-180 -142 -250 -86 -101 -108 -158 -89 -224 17 -54 47 -89 100 -113 121 -56
232 25 228 166 -1 33 3 85 8 115 15 73 114 320 199 496 54 111 78 149 112 178
48 42 108 76 135 76 15 0 16 2 3 10 -10 7 -4 8 20 4 44 -7 49 -2 85 96 30 82
33 91 65 165 12 28 22 64 24 82 2 27 -2 34 -26 44 -21 9 -32 9 -40 1 -13 -13
-37 12 -38 40 0 22 -32 44 -95 64 -27 9 -52 20 -55 23 -10 12 -81 41 -100 41
-10 0 -23 -7 -28 -16 -13 -23 -48 -14 -44 12 5 38 -55 66 -80 37z m241 -173
c72 -36 106 -104 99 -195 -8 -96 -77 -165 -172 -173 -112 -9 -199 76 -199 195
0 141 150 236 272 173z m-474 -1215 c55 -54 9 -148 -81 -162 -44 -7 -79 11
-94 48 -38 91 105 185 175 114z"/>
<path d="M2674 2695 c-9 -23 4 -47 23 -43 22 4 30 38 11 49 -19 13 -28 11 -34
-6z"/>
<path d="M1480 2657 c0 -7 9 -45 20 -85 26 -93 25 -103 -7 -134 -38 -36 -76
-49 -119 -40 -35 7 -38 11 -69 97 -20 56 -38 91 -48 93 -26 5 -50 -56 -55
-140 -6 -103 2 -137 43 -185 34 -40 58 -51 177 -83 25 -7 57 -24 71 -39 13
-14 75 -102 137 -196 62 -93 116 -174 120 -178 4 -5 28 40 53 99 l45 107 -57
86 c-106 159 -114 176 -107 231 3 28 9 71 12 98 10 80 -37 163 -139 243 -50
40 -77 49 -77 26z m191 -264 c13 -17 13 -17 -6 -3 -11 8 -22 16 -24 17 -2 2 0
3 6 3 6 0 17 -8 24 -17z m-136 -103 c3 -5 -1 -10 -10 -10 -9 0 -13 5 -10 10 3
6 8 10 10 10 2 0 7 -4 10 -10z m-88 -86 c-3 -3 -12 -4 -19 -1 -8 3 -5 6 6 6
11 1 17 -2 13 -5z"/>
<path d="M1012 2641 c-21 -13 -10 -46 16 -49 27 -4 40 22 22 43 -14 17 -20 18
-38 6z"/>
<path d="M2730 2635 c-10 -12 -10 -18 0 -30 15 -18 34 -19 48 -2 9 10 6 17 -8
30 -24 21 -25 21 -40 2z"/>
<path d="M2782 2567 c-9 -10 -8 -18 2 -32 18 -25 48 -13 44 17 -4 27 -30 35
-46 15z"/>
<path d="M952 2557 c-10 -11 -9 -17 4 -28 18 -15 49 -1 49 22 0 19 -39 23 -53
6z"/>
<path d="M910 2495 c-17 -20 -5 -45 20 -45 11 0 23 7 26 15 6 15 -11 45 -26
45 -4 0 -13 -7 -20 -15z"/>
<path d="M2828 2497 c-15 -12 -15 -14 0 -34 15 -19 19 -20 35 -8 13 9 17 20
12 34 -7 24 -22 26 -47 8z"/>
<path d="M866 2414 c-10 -25 -7 -31 14 -37 26 -7 50 31 29 44 -21 13 -36 11
-43 -7z"/>
<path d="M2867 2410 c-7 -27 18 -47 38 -30 21 18 15 42 -11 46 -15 2 -23 -3
-27 -16z"/>
<path d="M843 2353 c-7 -3 -13 -16 -13 -29 0 -19 5 -24 25 -24 18 0 25 5 25
19 0 22 -20 40 -37 34z"/>
<path d="M2913 2349 c-20 -7 -21 -11 -12 -33 9 -19 16 -23 32 -17 26 10 31 22
15 43 -10 12 -19 14 -35 7z"/>
<path d="M806 2273 c-3 -4 -6 -16 -6 -29 0 -32 35 -38 49 -8 5 13 7 25 3 27
-19 11 -41 15 -46 10z"/>
<path d="M2943 2273 c-7 -3 -13 -16 -13 -30 0 -20 4 -24 23 -21 13 2 23 11 25
24 3 22 -13 34 -35 27z"/>
<path d="M781 2177 c-8 -10 -7 -19 4 -33 13 -18 15 -18 31 -2 18 18 13 48 -9
48 -8 0 -20 -6 -26 -13z"/>
<path d="M2956 2182 c-3 -5 -3 -17 -2 -28 2 -13 10 -18 27 -16 29 3 29 4 22
30 -5 21 -36 31 -47 14z"/>
<path d="M760 2080 c0 -25 4 -30 24 -30 17 0 25 7 28 24 3 16 0 27 -9 30 -32
12 -43 6 -43 -24z"/>
<path d="M2970 2095 c-11 -13 -11 -19 3 -32 21 -21 49 -9 45 19 -4 28 -30 35
-48 13z"/>
<path d="M757 2013 c-12 -12 -7 -41 8 -47 19 -7 46 20 39 39 -6 15 -35 20 -47
8z"/>
<path d="M2980 1995 c0 -20 5 -25 25 -25 20 0 25 5 25 25 0 20 -5 25 -25 25
-20 0 -25 -5 -25 -25z"/>
<path d="M750 1910 c0 -25 4 -30 25 -30 21 0 25 5 25 30 0 25 -4 30 -25 30
-21 0 -25 -5 -25 -30z"/>
<path d="M2987 1933 c-13 -12 -7 -44 8 -49 24 -10 47 14 34 37 -10 19 -30 25
-42 12z"/>
<path d="M753 1834 c-3 -8 2 -23 11 -32 11 -11 16 -12 16 -4 0 7 4 11 9 8 11
-7 20 14 14 32 -7 17 -42 15 -50 -4z"/>
<path d="M2980 1825 c0 -20 5 -25 25 -25 20 0 25 5 25 25 0 20 -5 25 -25 25
-20 0 -25 -5 -25 -25z"/>
<path d="M773 1763 c-7 -2 -13 -16 -13 -29 0 -18 5 -24 23 -24 31 0 35 5 29
35 -4 24 -14 29 -39 18z"/>
<path d="M2970 1755 c-11 -13 -11 -19 3 -32 21 -21 49 -9 45 19 -4 28 -30 35
-48 13z"/>
<path d="M1962 1617 c-23 -56 -42 -106 -42 -111 0 -13 168 -276 208 -325 65
-80 133 -102 186 -60 19 15 26 30 26 54 0 51 -11 71 -103 198 -47 64 -118 168
-157 232 -40 63 -73 115 -74 115 0 0 -20 -46 -44 -103z m303 -423 c0 -12 -8
-20 -22 -22 -25 -4 -31 16 -11 36 17 17 33 10 33 -14z"/>
<path d="M2955 1682 c-12 -12 -4 -42 15 -52 15 -8 21 -6 30 9 5 11 10 24 10
29 0 11 -46 22 -55 14z"/>
<path d="M774 1665 c-4 -9 -2 -21 4 -27 16 -16 47 -5 47 17 0 26 -42 34 -51
10z"/>
<path d="M804 1592 c-11 -6 -2 -52 10 -52 20 0 36 16 36 36 0 24 -22 32 -46
16z"/>
<path d="M2937 1593 c-11 -10 -8 -41 4 -49 16 -9 43 21 36 40 -7 16 -28 21
-40 9z"/>
<path d="M2902 1504 c-10 -20 -8 -25 9 -35 23 -12 35 -4 41 25 2 11 -5 21 -18
26 -17 7 -24 4 -32 -16z"/>
<path d="M827 1506 c-7 -18 20 -49 37 -43 6 2 11 15 11 28 0 28 -39 40 -48 15z"/>
<path d="M878 1439 c-35 -19 -11 -67 24 -48 21 11 22 19 6 42 -10 12 -17 14
-30 6z"/>
<path d="M2864 1425 c-4 -9 -2 -21 4 -27 16 -16 47 -5 47 17 0 26 -42 34 -51
10z"/>
<path d="M912 1361 c-19 -12 -11 -45 12 -49 25 -5 39 12 31 37 -7 22 -21 26
-43 12z"/>
<path d="M2835 1360 c3 -5 1 -10 -4 -10 -18 0 -12 -24 9 -38 18 -11 22 -9 32
14 10 21 9 27 -3 35 -19 12 -42 11 -34 -1z"/>
<path d="M957 1286 c-17 -13 -17 -14 0 -34 16 -20 20 -20 38 -6 19 14 19 16 3
28 -10 7 -15 16 -11 19 12 13 -12 6 -30 -7z"/>
<path d="M2781 1283 c-12 -24 1 -46 25 -41 13 2 19 12 19 28 0 30 -30 39 -44
13z"/>
<path d="M1004 1215 c-9 -23 3 -45 25 -45 23 0 35 28 20 46 -15 18 -38 18 -45
-1z"/>
<path d="M2730 1215 c-10 -12 -10 -18 0 -30 17 -20 33 -19 47 5 11 16 10 21
-6 30 -25 13 -26 13 -41 -5z"/>
<path d="M1066 1155 c-19 -14 -19 -15 -1 -35 17 -19 20 -19 36 -4 14 13 16 21
8 35 -12 23 -18 23 -43 4z"/>
<path d="M2683 1163 c-7 -3 -13 -16 -13 -29 0 -19 5 -24 25 -24 20 0 25 5 25
24 0 25 -15 36 -37 29z"/>
<path d="M1131 1101 c-18 -12 -9 -45 13 -49 17 -4 35 12 36 30 0 13 -36 27
-49 19z"/>
<path d="M2616 1097 c-15 -11 -17 -17 -7 -35 14 -27 23 -27 45 -4 15 18 15 20
-2 35 -16 14 -21 15 -36 4z"/>
<path d="M1192 1039 c-10 -16 -10 -24 -1 -35 15 -19 29 -18 45 4 10 14 10 20
-3 35 -21 22 -25 22 -41 -4z"/>
<path d="M2544 1035 c-8 -21 2 -45 19 -45 8 0 20 7 27 15 10 12 10 18 0 30 -7
8 -19 15 -27 15 -7 0 -16 -7 -19 -15z"/>
<path d="M1260 976 c0 -21 5 -26 26 -26 21 0 25 4 22 23 -2 14 -11 23 -25 25
-19 3 -23 -1 -23 -22z"/>
<path d="M2472 987 c-7 -8 -6 -17 3 -30 11 -15 17 -17 35 -7 13 7 19 17 16 27
-3 8 -6 17 -6 19 0 10 -38 3 -48 -9z"/>
<path d="M1331 941 c-9 -15 -6 -22 14 -35 24 -16 26 -16 37 9 10 22 9 28 -3
36 -22 14 -37 11 -48 -10z"/>
<path d="M2400 945 c-11 -13 -11 -19 3 -32 21 -21 49 -9 45 19 -4 28 -30 35
-48 13z"/>
<path d="M1409 904 c-11 -14 -11 -18 5 -29 24 -18 48 -8 44 19 -4 26 -30 32
-49 10z"/>
<path d="M2323 913 c-19 -7 3 -43 26 -43 24 0 30 7 24 31 -5 18 -24 23 -50 12z"/>
<path d="M1487 868 c-11 -39 38 -53 52 -15 6 16 4 24 -8 29 -28 12 -39 9 -44
-14z"/>
<path d="M2253 883 c-18 -7 -16 -42 3 -50 8 -3 23 1 31 10 13 13 14 19 3 31
-13 17 -17 18 -37 9z"/>
<path d="M1568 848 c-9 -23 3 -38 29 -38 20 0 24 4 21 23 -3 25 -42 37 -50 15z"/>
<path d="M2160 836 c0 -30 8 -36 37 -25 30 11 20 49 -13 49 -19 0 -24 -5 -24
-24z"/>
<path d="M1657 833 c-16 -15 -6 -41 17 -45 23 -5 35 11 36 45 0 9 -44 9 -53 0z"/>
<path d="M2076 824 c-4 -10 -2 -22 3 -27 15 -15 46 -3 46 18 0 26 -40 33 -49
9z"/>
<path d="M1733 814 c-7 -20 22 -45 44 -37 8 3 13 15 11 27 -4 27 -45 35 -55
10z"/>
<path d="M1992 803 c2 -23 7 -27 28 -25 32 5 33 6 25 31 -4 14 -15 21 -31 21
-22 0 -25 -4 -22 -27z"/>
<path d="M1820 795 c0 -21 5 -25 29 -25 24 0 29 4 29 25 0 21 -5 25 -29 25
-24 0 -29 -4 -29 -25z"/>
<path d="M1904 805 c-4 -9 -2 -21 4 -27 16 -16 47 -5 47 17 0 26 -42 34 -51
10z"/>
<path d="M829 972 c-29 -29 -39 -48 -39 -71 0 -35 30 -71 59 -71 29 0 84 43
106 82 l20 37 -21 28 c-34 45 -76 43 -125 -5z"/>
<path d="M1756 549 c-3 -18 -9 -63 -13 -101 -6 -65 -5 -68 16 -68 82 0 111
189 30 198 -22 3 -27 -2 -33 -29z"/>
</g>
</svg>
